<svg xmlns="http://www.w3.org/2000/svg" xmlns:xlink="http://www.w3.org/1999/xlink" viewBox="0 0 65.664 65.664" fill="#fff" fill-rule="evenodd" stroke="#000" stroke-linecap="round" stroke-linejoin="round"><use xlink:href="#A" x=".832" y=".832"/><symbol id="A" overflow="visible"><g stroke="none" fill-rule="nonzero"><path d="M0 32A31.93 31.93 0 0 1 31.999 0a31.93 31.93 0 0 1 31.999 31.999 31.93 31.93 0 0 1-31.999 31.999A31.93 31.93 0 0 1 0 31.999z" fill="#22a6b3"/><path d="M24.143 44.546c-.5 1.667-1.2 2.585-3.4 2.585-1.905 0-2.72-.715-2.72-1.905a3.83 3.83 0 0 1 .205-1.19l7.62-26.73c.5-1.7 1.2-2.585 3.367-2.585 1.938 0 2.788.715 2.788 1.87 0 .408-.136.832-.238 1.258zm14.623 0c-.5 1.667-1.2 2.585-3.4 2.585-1.905 0-2.72-.715-2.72-1.905a3.83 3.83 0 0 1 .205-1.19l7.62-26.73c.5-1.7 1.2-2.585 3.367-2.585 1.938 0 2.788.715 2.788 1.87 0 .408-.136.832-.238 1.258z"/></g></symbol></svg>
